mtllib materials.mtl
v 0.0108332 -0.2858335 -0.1836112
v 0.08083326 -0.2858335 -0.1836112
v 0.08083332 0.1841664 -0.1836112
v 0.01083332 0.1841664 -0.1836112
v 0.01083326 -0.2858335 0.1763889
v 0.01083332 0.1841664 0.1763889
v 0.08083338 0.1841664 0.1763889
v 0.08083326 -0.2858335 0.1763889
v -0.05916667 0.07416654 -0.1436111
v 0.01083332 0.07416654 -0.1436111
v 0.01083338 0.1441667 -0.1436111
v -0.05916667 0.1441667 -0.1436111
v -0.05916667 0.07416654 -0.07361114
v -0.05916661 0.1441667 -0.07361114
v 0.01083338 0.1441667 -0.07361114
v 0.01083338 0.07416654 -0.07361114
v -0.05916673 0.07416654 -0.03361112
v 0.01083326 0.07416654 -0.03361112
v 0.01083332 0.1441667 -0.03361112
v -0.05916673 0.1441667 -0.03361112
v -0.05916673 0.07416654 0.03638887
v -0.05916667 0.1441667 0.03638887
v 0.01083332 0.1441667 0.03638887
v 0.01083332 0.07416654 0.03638887
v -0.05916667 0.0741663 0.07638887
v 0.01083332 0.0741663 0.07638887
v 0.01083338 0.1441665 0.07638887
v -0.05916667 0.1441665 0.07638887
v -0.05916667 0.0741663 0.1463889
v -0.05916661 0.1441665 0.1463889
v 0.01083338 0.1441665 0.1463889
v 0.01083338 0.0741663 0.1463889
v -0.05916667 -0.0358336 -0.1436111
v 0.01083338 -0.0358336 -0.1436111
v 0.01083338 0.03416657 -0.1436111
v -0.05916667 0.03416657 -0.1436111
v -0.05916667 -0.0358336 -0.07361114
v -0.05916667 0.03416657 -0.07361114
v 0.01083338 0.03416657 -0.07361114
v 0.01083338 -0.0358336 -0.07361114
v -0.05916667 -0.0358336 -0.03361112
v 0.01083332 -0.0358336 -0.03361112
v 0.01083338 0.03416657 -0.03361112
v -0.05916667 0.03416657 -0.03361112
v -0.05916667 -0.0358336 0.03638887
v -0.05916661 0.03416657 0.03638887
v 0.01083338 0.03416657 0.03638887
v 0.01083338 -0.0358336 0.03638887
v -0.05916667 -0.0358336 0.07638887
v 0.01083332 -0.0358336 0.07638887
v 0.01083338 0.03416657 0.07638887
v -0.05916667 0.03416657 0.07638887
v -0.05916667 -0.0358336 0.1463889
v -0.05916661 0.03416657 0.1463889
v 0.01083338 0.03416657 0.1463889
v 0.01083338 -0.0358336 0.1463889
v -0.05916667 -0.1458336 -0.1436111
v 0.01083332 -0.1458336 -0.1436111
v 0.01083338 -0.07583356 -0.1436111
v -0.05916667 -0.07583356 -0.1436111
v -0.05916667 -0.1458336 -0.07361114
v -0.05916661 -0.07583356 -0.07361114
v 0.01083338 -0.07583356 -0.07361114
v 0.01083338 -0.1458336 -0.07361114
v -0.05916673 -0.1458335 -0.03361112
v 0.01083326 -0.1458335 -0.03361112
v 0.01083332 -0.07583332 -0.03361112
v -0.05916673 -0.07583332 -0.03361112
v -0.05916673 -0.1458335 0.03638887
v -0.05916667 -0.07583332 0.03638887
v 0.01083332 -0.07583332 0.03638887
v 0.01083332 -0.1458335 0.03638887
v -0.05916673 -0.1458336 0.07638887
v 0.01083326 -0.1458336 0.07638887
v 0.01083332 -0.07583356 0.07638887
v -0.05916673 -0.07583356 0.07638887
v -0.05916673 -0.1458336 0.1463889
v -0.05916667 -0.07583356 0.1463889
v 0.01083332 -0.07583356 0.1463889
v 0.01083332 -0.1458336 0.1463889
v -0.05916667 -0.2658335 -0.03361112
v 0.01083338 -0.2658335 -0.03361112
v 0.01083338 -0.1958336 -0.03361112
v -0.05916667 -0.1958336 -0.03361112
v -0.05916667 -0.2658335 0.03638887
v -0.05916667 -0.1958336 0.03638887
v 0.01083338 -0.1958336 0.03638887
v 0.01083338 -0.2658335 0.03638887
v 0.01083326 -0.3458335 -0.1836112
v 0.08083326 -0.3458335 -0.1836112
v 0.08083326 -0.2758336 -0.1836112
v 0.01083326 -0.2758336 -0.1836112
v 0.01083332 -0.3458335 0.1763889
v 0.01083332 -0.2758336 0.1763889
v 0.08083332 -0.2758336 0.1763889
v 0.08083332 -0.3458335 0.1763889
v -0.05916667 -0.2658335 0.07638887
v 0.01083332 -0.2658335 0.07638887
v 0.01083338 -0.1958336 0.07638887
v -0.05916667 -0.1958336 0.07638887
v -0.05916667 -0.2658335 0.1463889
v -0.05916661 -0.1958336 0.1463889
v 0.01083338 -0.1958336 0.1463889
v 0.01083338 -0.2658335 0.1463889
v -0.05916667 -0.2658335 -0.1436111
v 0.01083332 -0.2658335 -0.1436111
v 0.01083338 -0.1958336 -0.1436111
v -0.05916667 -0.1958336 -0.1436111
v -0.05916667 -0.2658335 -0.07361114
v -0.05916661 -0.1958336 -0.07361114
v 0.01083338 -0.1958336 -0.07361114
v 0.01083338 -0.2658335 -0.07361114
v 0.01083326 0.1741667 0.1063888
v 0.08083326 0.1741667 0.1063888
v 0.08083332 0.3341665 0.1063888
v 0.01083332 0.3341665 0.1063888
v 0.01083326 0.1741667 0.1763889
v 0.01083332 0.3341665 0.1763889
v 0.08083332 0.3341665 0.1763889
v 0.08083326 0.1741667 0.1763889
v 0.01083332 0.1641667 -0.1836111
v 0.08083332 0.1641667 -0.1836111
v 0.08083338 0.3441665 -0.1836111
v 0.01083338 0.3441665 -0.1836111
v 0.01083332 0.1641667 -0.1136111
v 0.01083338 0.3441665 -0.1136111
v 0.08083338 0.3441665 -0.1136111
v 0.08083332 0.1641667 -0.1136111
v 0.01083326 0.2841663 -0.1836112
v 0.08083326 0.2841663 -0.1836112
v 0.08083326 0.3541665 -0.1836112
v 0.01083326 0.3541665 -0.1836112
v 0.01083332 0.2841663 0.1763889
v 0.01083332 0.3541665 0.1763889
v 0.08083332 0.3541665 0.1763889
v 0.08083332 0.2841663 0.1763889
v 0.0308333 0.1841664 -0.1136112
v 0.09083331 0.1841664 -0.1136112
v 0.09083331 0.2841663 -0.1136112
v 0.0308333 0.2841663 -0.1136112
v 0.03083336 0.1841664 0.1163889
v 0.03083336 0.2841663 0.1163889
v 0.09083337 0.2841663 0.1163889
v 0.09083337 0.1841664 0.1163889
vn -1.192093E-07 0 -1
vn 1.192093E-07 0 1
vn -1.748456E-07 -1 0
vn 1.748456E-07 1 0
vn -1 1.748456E-07 1.192093E-07
vn 1 -1.748456E-07 -1.192093E-07
vn -1.192093E-07 0 -1
vn 1.192093E-07 0 1
vn -1.748456E-07 -1 0
vn 1.748456E-07 1 0
vn -1 1.748456E-07 1.192093E-07
vn 1 -1.748456E-07 -1.192093E-07
vn -1.192093E-07 0 -1
vn 1.192093E-07 0 1
vn -1.748456E-07 -1 0
vn 1.748456E-07 1 0
vn -1 1.748456E-07 1.192093E-07
vn 1 -1.748456E-07 -1.192093E-07
vn -1.192093E-07 0 -1
vn 1.192093E-07 0 1
vn -1.748456E-07 -1 0
vn 1.748456E-07 1 0
vn -1 1.748456E-07 1.192093E-07
vn 1 -1.748456E-07 -1.192093E-07
vn -1.192093E-07 0 -1
vn 1.192093E-07 0 1
vn 0 -1 0
vn 0 1 0
vn -1 0 1.192093E-07
vn 1 0 -1.192093E-07
vn -1.192093E-07 0 -1
vn 1.192093E-07 0 1
vn -1.748456E-07 -1 0
vn 1.748456E-07 1 0
vn -1 1.748456E-07 1.192093E-07
vn 1 -1.748456E-07 -1.192093E-07
vn -1.192093E-07 0 -1
vn 1.192093E-07 0 1
vn -1.748456E-07 -1 0
vn 1.748456E-07 1 0
vn -1 1.748456E-07 1.192093E-07
vn 1 -1.748456E-07 -1.192093E-07
vn -1.192093E-07 0 -1
vn 1.192093E-07 0 1
vn -1.748456E-07 -1 0
vn 1.748456E-07 1 0
vn -1 1.748456E-07 1.192093E-07
vn 1 -1.748456E-07 -1.192093E-07
vn -1.192093E-07 0 -1
vn 1.192093E-07 0 1
vn -1.748456E-07 -1 0
vn 1.748456E-07 1 0
vn -1 1.748456E-07 1.192093E-07
vn 1 -1.748456E-07 -1.192093E-07
vn -1.192093E-07 0 -1
vn 1.192093E-07 0 1
vn -1.748456E-07 -1 0
vn 1.748456E-07 1 0
vn -1 1.748456E-07 1.192093E-07
vn 1 -1.748456E-07 -1.192093E-07
vn -1.192093E-07 0 -1
vn 1.192093E-07 0 1
vn 0 -1 0
vn 0 1 0
vn -1 0 1.192093E-07
vn 1 0 -1.192093E-07
vn -1.192093E-07 0 -1
vn 1.192093E-07 0 1
vn -1.748456E-07 -1 0
vn 1.748456E-07 1 0
vn -1 1.748456E-07 1.192093E-07
vn 1 -1.748456E-07 -1.192093E-07
vn -1.192093E-07 0 -1
vn 1.192093E-07 0 1
vn -1.748456E-07 -1 0
vn 1.748456E-07 1 0
vn -1 1.748456E-07 1.192093E-07
vn 1 -1.748456E-07 -1.192093E-07
vn -1.192093E-07 0 -1
vn 1.192093E-07 0 1
vn -1.748456E-07 -1 0
vn 1.748456E-07 1 0
vn -1 1.748456E-07 1.192093E-07
vn 1 -1.748456E-07 -1.192093E-07
vn -1.192093E-07 0 -1
vn 1.192093E-07 0 1
vn -1.748456E-07 -1 0
vn 1.748456E-07 1 0
vn -1 1.748456E-07 1.192093E-07
vn 1 -1.748456E-07 -1.192093E-07
vn -1.192093E-07 0 -1
vn 1.192093E-07 0 1
vn -1.748456E-07 -1 0
vn 1.748456E-07 1 0
vn -1 1.748456E-07 1.192093E-07
vn 1 -1.748456E-07 -1.192093E-07
vn -1.192093E-07 0 -1
vn 1.192093E-07 0 1
vn -1.748456E-07 -1 0
vn 1.748456E-07 1 0
vn -1 1.748456E-07 1.192093E-07
vn 1 -1.748456E-07 -1.192093E-07
vn -1.192093E-07 0 -1
vn 1.192093E-07 0 1
vn -1.748456E-07 -1 0
vn 1.748456E-07 1 0
vn -1 1.748456E-07 1.192093E-07
vn 1 -1.748456E-07 -1.192093E-07
vt -0.1283503 0.159208
vt -0.1252198 0.165469
vt -0.1672579 0.1864881
vt -0.1703884 0.1802271
vt 0.1283503 0.159208
vt 0.1703884 0.1802271
vt 0.1672579 0.1864881
vt 0.1252198 0.165469
vt 0.0493069 0.07264862
vt 0.08320961 0.06054052
vt 0.08556397 0.0671327
vt 0.05166125 0.07924081
vt -0.0493069 0.07264862
vt -0.05166125 0.07924081
vt -0.08556397 0.06713271
vt -0.08320961 0.06054051
vt -0.1260124 0.1385672
vt -0.1533306 0.1768127
vt -0.182625 0.1558882
vt -0.1553068 0.1176427
vt 0.1260124 0.1385672
vt 0.1553068 0.1176427
vt 0.182625 0.1558882
vt 0.1533306 0.1768127
vt -0.1636802 0.1690467
vt -0.1605497 0.1753077
vt -0.1668107 0.1784382
vt -0.1699412 0.1721772
vt 0.1636802 0.1690467
vt 0.1699412 0.1721772
vt 0.1668107 0.1784382
vt 0.1605497 0.1753077
vt 0.05071951 0.06471109
vt 0.05731171 0.06235673
vt 0.05966606 0.06894893
vt 0.05307387 0.07130328
vt -0.05071951 0.06471108
vt -0.05307387 0.07130329
vt -0.05966606 0.06894893
vt -0.05731171 0.06235673
vt -0.1501919 0.1655367
vt -0.1542606 0.1712328
vt -0.1599567 0.1671642
vt -0.1558881 0.161468
vt 0.1501919 0.1655367
vt 0.1558881 0.161468
vt 0.1599567 0.1671642
vt 0.1542606 0.1712328
vt -0.1636802 0.1690467
vt -0.1605497 0.1753077
vt -0.1668107 0.1784382
vt -0.1699412 0.1721772
vt 0.1636802 0.1690467
vt 0.1699412 0.1721772
vt 0.1668107 0.1784382
vt 0.1605497 0.1753077
vt 0.06107868 0.06101138
vt 0.06767087 0.05865703
vt 0.07002522 0.06524922
vt 0.06343303 0.06760357
vt -0.06107868 0.06101138
vt -0.06343303 0.06760357
vt -0.07002522 0.06524922
vt -0.06767087 0.05865703
vt -0.159143 0.1591431
vt -0.1632117 0.1648392
vt -0.1689078 0.1607706
vt -0.1648391 0.1550744
vt 0.159143 0.1591431
vt 0.1648391 0.1550744
vt 0.1689078 0.1607706
vt 0.1632117 0.1648392
vt -0.1636802 0.1690467
vt -0.1605497 0.1753077
vt -0.1668107 0.1784382
vt -0.1699412 0.1721772
vt 0.1636802 0.1690467
vt 0.1699412 0.1721772
vt 0.1668107 0.1784382
vt 0.1605497 0.1753077
vt 0.07143784 0.05731168
vt 0.07803003 0.05495733
vt 0.08038439 0.06154953
vt 0.07379219 0.06390388
vt -0.07143784 0.05731168
vt -0.07379219 0.06390388
vt -0.08038439 0.06154953
vt -0.07803003 0.05495733
vt -0.168094 0.1527494
vt -0.1721627 0.1584456
vt -0.1778588 0.1543769
vt -0.1737902 0.1486808
vt 0.168094 0.1527494
vt 0.1737902 0.1486808
vt 0.1778588 0.1543769
vt 0.1721627 0.1584456
vt -0.1538415 0.1641274
vt -0.150711 0.1703884
vt -0.156972 0.1735189
vt -0.1601025 0.1672579
vt 0.1538415 0.1641274
vt 0.1601025 0.1672579
vt 0.156972 0.1735189
vt 0.150711 0.1703884
vt 0.05071953 0.06471112
vt 0.05731172 0.06235677
vt 0.05966608 0.06894897
vt 0.05307388 0.07130332
vt -0.05071953 0.06471112
vt -0.05307388 0.07130332
vt -0.05966608 0.06894897
vt -0.05731172 0.06235677
vt -0.1437983 0.1565856
vt -0.147867 0.1622817
vt -0.1535631 0.1582131
vt -0.1494945 0.1525169
vt 0.1437983 0.1565856
vt 0.1494945 0.1525169
vt 0.1535631 0.1582131
vt 0.147867 0.1622817
vt -0.1538415 0.1641274
vt -0.150711 0.1703884
vt -0.156972 0.1735189
vt -0.1601025 0.1672579
vt 0.1538415 0.1641274
vt 0.1601025 0.1672579
vt 0.156972 0.1735189
vt 0.150711 0.1703884
vt 0.06107868 0.06101139
vt 0.06767087 0.05865703
vt 0.07002522 0.06524923
vt 0.06343304 0.06760357
vt -0.06107868 0.06101139
vt -0.06343304 0.06760358
vt -0.07002522 0.06524923
vt -0.06767087 0.05865704
vt -0.1527493 0.150192
vt -0.156818 0.1558882
vt -0.1625142 0.1518195
vt -0.1584455 0.1461233
vt 0.1527493 0.150192
vt 0.1584455 0.1461233
vt 0.1625142 0.1518195
vt 0.156818 0.1558882
vt -0.1538415 0.1641274
vt -0.150711 0.1703884
vt -0.156972 0.1735189
vt -0.1601025 0.1672579
vt 0.1538415 0.1641274
vt 0.1601025 0.1672579
vt 0.156972 0.1735189
vt 0.150711 0.1703884
vt 0.07143784 0.05731168
vt 0.07803003 0.05495733
vt 0.08038439 0.06154953
vt 0.07379219 0.06390388
vt -0.07143784 0.05731168
vt -0.07379219 0.06390388
vt -0.08038439 0.06154953
vt -0.07803003 0.05495734
vt -0.1617004 0.1437984
vt -0.1657691 0.1494945
vt -0.1714652 0.1454259
vt -0.1673966 0.1397297
vt 0.1617004 0.1437984
vt 0.1673966 0.1397297
vt 0.1714652 0.1454259
vt 0.1657691 0.1494945
vt -0.1440028 0.159208
vt -0.1408723 0.165469
vt -0.1471333 0.1685995
vt -0.1502638 0.1623385
vt 0.1440028 0.159208
vt 0.1502638 0.1623385
vt 0.1471333 0.1685995
vt 0.1408723 0.165469
vt 0.05071952 0.06471109
vt 0.05731171 0.06235673
vt 0.05966606 0.06894893
vt 0.05307387 0.07130329
vt -0.05071951 0.06471109
vt -0.05307387 0.07130329
vt -0.05966606 0.06894893
vt -0.05731171 0.06235674
vt -0.1374047 0.1476346
vt -0.1414733 0.1533307
vt -0.1471695 0.149262
vt -0.1431008 0.1435659
vt 0.1374047 0.1476346
vt 0.1431008 0.1435659
vt 0.1471695 0.149262
vt 0.1414733 0.1533307
vt -0.1440028 0.159208
vt -0.1408723 0.165469
vt -0.1471333 0.1685995
vt -0.1502638 0.1623385
vt 0.1440028 0.159208
vt 0.1502638 0.1623385
vt 0.1471333 0.1685995
vt 0.1408723 0.165469
vt 0.06107868 0.06101138
vt 0.06767087 0.05865703
vt 0.07002522 0.06524923
vt 0.06343303 0.06760357
vt -0.06107868 0.06101138
vt -0.06343304 0.06760358
vt -0.07002522 0.06524922
vt -0.06767087 0.05865703
vt -0.1463557 0.1412409
vt -0.1504244 0.1469371
vt -0.1561206 0.1428684
vt -0.1520519 0.1371723
vt 0.1463557 0.1412409
vt 0.1520519 0.1371723
vt 0.1561206 0.1428684
vt 0.1504244 0.1469371
vt -0.1440028 0.159208
vt -0.1408723 0.165469
vt -0.1471333 0.1685995
vt -0.1502638 0.1623385
vt 0.1440028 0.159208
vt 0.1502638 0.1623385
vt 0.1471333 0.1685995
vt 0.1408723 0.165469
vt 0.07143784 0.05731168
vt 0.07803003 0.05495732
vt 0.08038439 0.06154953
vt 0.07379219 0.06390388
vt -0.07143784 0.05731168
vt -0.07379219 0.06390388
vt -0.08038439 0.06154952
vt -0.07803003 0.05495733
vt -0.1553068 0.1348473
vt -0.1593755 0.1405434
vt -0.1650716 0.1364748
vt -0.1610029 0.1307786
vt 0.1553068 0.1348473
vt 0.1610029 0.1307786
vt 0.1650716 0.1364748
vt 0.1593755 0.1405434
vt -0.1332697 0.1538415
vt -0.1301392 0.1601025
vt -0.1364001 0.163233
vt -0.1395306 0.156972
vt 0.1332697 0.1538415
vt 0.1395306 0.156972
vt 0.1364001 0.163233
vt 0.1301392 0.1601025
vt 0.06107869 0.06101142
vt 0.06767088 0.05865707
vt 0.07002524 0.06524926
vt 0.06343304 0.06760362
vt -0.06107869 0.06101142
vt -0.06343304 0.06760362
vt -0.07002524 0.06524926
vt -0.06767088 0.05865707
vt -0.1393809 0.1314761
vt -0.1434496 0.1371722
vt -0.1491457 0.1331036
vt -0.1450771 0.1274074
vt 0.1393809 0.1314761
vt 0.1450771 0.1274074
vt 0.1491457 0.1331036
vt 0.1434496 0.1371722
vt -0.1229838 0.1565247
vt -0.1198533 0.1627857
vt -0.1261142 0.1659162
vt -0.1292447 0.1596552
vt 0.1229838 0.1565247
vt 0.1292447 0.1596552
vt 0.1261142 0.1659162
vt 0.1198533 0.1627857
vt 0.0493069 0.07264863
vt 0.08320961 0.06054052
vt 0.08556397 0.06713271
vt 0.05166125 0.07924081
vt -0.0493069 0.07264863
vt -0.05166125 0.07924081
vt -0.08556397 0.06713271
vt -0.08320961 0.06054052
vt -0.122525 0.1336848
vt -0.1265936 0.139381
vt -0.1558881 0.1184564
vt -0.1518194 0.1127603
vt 0.122525 0.1336848
vt 0.1518194 0.1127603
vt 0.1558881 0.1184564
vt 0.1265936 0.139381
vt -0.1332697 0.1538415
vt -0.1301392 0.1601025
vt -0.1364001 0.163233
vt -0.1395306 0.156972
vt 0.1332697 0.1538415
vt 0.1395306 0.156972
vt 0.1364001 0.163233
vt 0.1301392 0.1601025
vt 0.07143784 0.05731169
vt 0.07803003 0.05495734
vt 0.08038439 0.06154953
vt 0.07379219 0.06390388
vt -0.07143784 0.05731169
vt -0.0737922 0.06390388
vt -0.08038439 0.06154953
vt -0.07803003 0.05495734
vt -0.148332 0.1250825
vt -0.1524006 0.1307786
vt -0.1580968 0.12671
vt -0.1540281 0.1210139
vt 0.148332 0.1250825
vt 0.1540281 0.1210139
vt 0.1580968 0.12671
vt 0.1524006 0.1307786
vt -0.1332697 0.1538415
vt -0.1301392 0.1601025
vt -0.1364001 0.163233
vt -0.1395306 0.156972
vt 0.1332697 0.1538415
vt 0.1395306 0.156972
vt 0.1364001 0.163233
vt 0.1301392 0.1601025
vt 0.05071952 0.06471109
vt 0.05731171 0.06235673
vt 0.05966607 0.06894894
vt 0.05307387 0.07130329
vt -0.05071952 0.06471109
vt -0.05307387 0.07130329
vt -0.05966606 0.06894894
vt -0.05731171 0.06235674
vt -0.1304298 0.1378697
vt -0.1344985 0.1435659
vt -0.1401946 0.1394972
vt -0.136126 0.1338011
vt 0.1304298 0.1378697
vt 0.136126 0.1338011
vt 0.1401946 0.1394972
vt 0.1344985 0.1435659
vt -0.169494 0.1797799
vt -0.1663635 0.1860408
vt -0.1806743 0.1931963
vt -0.1838048 0.1869353
vt 0.169494 0.1797799
vt 0.1838048 0.1869353
vt 0.1806743 0.1931963
vt 0.1663635 0.1860408
vt 0.0766174 0.06289487
vt 0.0832096 0.0605405
vt 0.08556396 0.0671327
vt 0.07897176 0.06948705
vt -0.0766174 0.06289487
vt -0.07897176 0.06948706
vt -0.08556397 0.0671327
vt -0.0832096 0.06054051
vt -0.1763476 0.1591431
vt -0.1856474 0.1721628
vt -0.1913436 0.1680942
vt -0.1820438 0.1550744
vt 0.1763476 0.1591431
vt 0.1820438 0.1550744
vt 0.1913436 0.1680942
vt 0.1856474 0.1721628
vt -0.1685996 0.1793327
vt -0.1654691 0.1855936
vt -0.1815687 0.1936435
vt -0.1846992 0.1873825
vt 0.1685996 0.1793327
vt 0.1846992 0.1873825
vt 0.1815687 0.1936435
vt 0.1654691 0.1855936
vt 0.0493069 0.07264862
vt 0.05589909 0.07029427
vt 0.05825345 0.07688646
vt 0.05166125 0.07924081
vt -0.0493069 0.07264863
vt -0.05166125 0.07924081
vt -0.05825345 0.07688646
vt -0.05589909 0.07029428
vt -0.1521681 0.1751853
vt -0.1626304 0.1898325
vt -0.1683265 0.1857638
vt -0.1578643 0.1711166
vt 0.1521681 0.1751853
vt 0.1578643 0.1711166
vt 0.1683265 0.1857638
vt 0.1626304 0.1898325
vt -0.1793326 0.1846992
vt -0.1762021 0.1909602
vt -0.1824632 0.1940907
vt -0.1855937 0.1878297
vt 0.1793326 0.1846992
vt 0.1855937 0.1878297
vt 0.1824632 0.1940907
vt 0.1762021 0.1909602
vt 0.0493069 0.07264861
vt 0.0832096 0.06054051
vt 0.08556397 0.0671327
vt 0.05166125 0.07924081
vt -0.0493069 0.07264861
vt -0.05166125 0.07924081
vt -0.08556397 0.0671327
vt -0.0832096 0.06054051
vt -0.159143 0.18495
vt -0.1632116 0.1906462
vt -0.192506 0.1697216
vt -0.1884374 0.1640255
vt 0.159143 0.1849501
vt 0.1884374 0.1640255
vt 0.192506 0.1697216
vt 0.1632116 0.1906462
vt -0.169494 0.1820159
vt -0.1668107 0.1873825
vt -0.1757549 0.1918546
vt -0.1784382 0.1864881
vt 0.169494 0.1820159
vt 0.1784382 0.1864881
vt 0.1757549 0.1918546
vt 0.1668107 0.1873825
vt 0.05657176 0.07217775
vt 0.07823183 0.06444202
vt 0.08024985 0.07009247
vt 0.05858978 0.07782821
vt -0.05657176 0.07217775
vt -0.05858978 0.0778282
vt -0.08024985 0.07009247
vt -0.07823183 0.06444202
vt -0.1590267 0.1727441
vt -0.1648391 0.1808814
vt -0.183555 0.1675129
vt -0.1777426 0.1593756
vt 0.1590267 0.1727441
vt 0.1777426 0.1593756
vt 0.183555 0.1675129
vt 0.1648391 0.1808814
o group69170486
g mesh69170486
usemtl mat21
f 4/4/1 3/3/1 2/2/1 1/1/1
f 8/8/2 7/7/2 6/6/2 5/5/2
f 2/12/3 8/11/3 5/10/3 1/9/3
f 6/16/4 7/15/4 3/14/4 4/13/4
f 5/20/5 6/19/5 4/18/5 1/17/5
f 3/24/6 7/23/6 8/22/6 2/21/6
o group1609584490
g mesh1609584490
usemtl mat16
f 12/28/7 11/27/7 10/26/7 9/25/7
f 16/32/8 15/31/8 14/30/8 13/29/8
f 10/36/9 16/35/9 13/34/9 9/33/9
f 14/40/10 15/39/10 11/38/10 12/37/10
f 13/44/11 14/43/11 12/42/11 9/41/11
f 11/48/12 15/47/12 16/46/12 10/45/12
o group221701986
g mesh221701986
usemtl mat16
f 20/52/13 19/51/13 18/50/13 17/49/13
f 24/56/14 23/55/14 22/54/14 21/53/14
f 18/60/15 24/59/15 21/58/15 17/57/15
f 22/64/16 23/63/16 19/62/16 20/61/16
f 21/68/17 22/67/17 20/66/17 17/65/17
f 19/72/18 23/71/18 24/70/18 18/69/18
o group435541884
g mesh435541884
usemtl mat16
f 28/76/19 27/75/19 26/74/19 25/73/19
f 32/80/20 31/79/20 30/78/20 29/77/20
f 26/84/21 32/83/21 29/82/21 25/81/21
f 30/88/22 31/87/22 27/86/22 28/85/22
f 29/92/23 30/91/23 28/90/23 25/89/23
f 27/96/24 31/95/24 32/94/24 26/93/24
o group94308765
g mesh94308765
usemtl mat16
f 36/100/25 35/99/25 34/98/25 33/97/25
f 40/104/26 39/103/26 38/102/26 37/101/26
f 34/108/27 40/107/27 37/106/27 33/105/27
f 38/112/28 39/111/28 35/110/28 36/109/28
f 37/116/29 38/115/29 36/114/29 33/113/29
f 35/120/30 39/119/30 40/118/30 34/117/30
o group1185766994
g mesh1185766994
usemtl mat16
f 44/124/31 43/123/31 42/122/31 41/121/31
f 48/128/32 47/127/32 46/126/32 45/125/32
f 42/132/33 48/131/33 45/130/33 41/129/33
f 46/136/34 47/135/34 43/134/34 44/133/34
f 45/140/35 46/139/35 44/138/35 41/137/35
f 43/144/36 47/143/36 48/142/36 42/141/36
o group1251953792
g mesh1251953792
usemtl mat16
f 52/148/37 51/147/37 50/146/37 49/145/37
f 56/152/38 55/151/38 54/150/38 53/149/38
f 50/156/39 56/155/39 53/154/39 49/153/39
f 54/160/40 55/159/40 51/158/40 52/157/40
f 53/164/41 54/163/41 52/162/41 49/161/41
f 51/168/42 55/167/42 56/166/42 50/165/42
o group2076518120
g mesh2076518120
usemtl mat16
f 60/172/43 59/171/43 58/170/43 57/169/43
f 64/176/44 63/175/44 62/174/44 61/173/44
f 58/180/45 64/179/45 61/178/45 57/177/45
f 62/184/46 63/183/46 59/182/46 60/181/46
f 61/188/47 62/187/47 60/186/47 57/185/47
f 59/192/48 63/191/48 64/190/48 58/189/48
o group598560313
g mesh598560313
usemtl mat16
f 68/196/49 67/195/49 66/194/49 65/193/49
f 72/200/50 71/199/50 70/198/50 69/197/50
f 66/204/51 72/203/51 69/202/51 65/201/51
f 70/208/52 71/207/52 67/206/52 68/205/52
f 69/212/53 70/211/53 68/210/53 65/209/53
f 67/216/54 71/215/54 72/214/54 66/213/54
o group984566133
g mesh984566133
usemtl mat16
f 76/220/55 75/219/55 74/218/55 73/217/55
f 80/224/56 79/223/56 78/222/56 77/221/56
f 74/228/57 80/227/57 77/226/57 73/225/57
f 78/232/58 79/231/58 75/230/58 76/229/58
f 77/236/59 78/235/59 76/234/59 73/233/59
f 75/240/60 79/239/60 80/238/60 74/237/60
o group1859105692
g mesh1859105692
usemtl mat16
f 84/244/61 83/243/61 82/242/61 81/241/61
f 88/248/62 87/247/62 86/246/62 85/245/62
f 82/252/63 88/251/63 85/250/63 81/249/63
f 86/256/64 87/255/64 83/254/64 84/253/64
f 85/260/65 86/259/65 84/258/65 81/257/65
f 83/264/66 87/263/66 88/262/66 82/261/66
o group245016458
g mesh245016458
usemtl mat21
f 92/268/67 91/267/67 90/266/67 89/265/67
f 96/272/68 95/271/68 94/270/68 93/269/68
f 90/276/69 96/275/69 93/274/69 89/273/69
f 94/280/70 95/279/70 91/278/70 92/277/70
f 93/284/71 94/283/71 92/282/71 89/281/71
f 91/288/72 95/287/72 96/286/72 90/285/72
o group1353294035
g mesh1353294035
usemtl mat10
f 100/292/73 99/291/73 98/290/73 97/289/73
f 104/296/74 103/295/74 102/294/74 101/293/74
f 98/300/75 104/299/75 101/298/75 97/297/75
f 102/304/76 103/303/76 99/302/76 100/301/76
f 101/308/77 102/307/77 100/306/77 97/305/77
f 99/312/78 103/311/78 104/310/78 98/309/78
o group759944653
g mesh759944653
usemtl mat8
f 108/316/79 107/315/79 106/314/79 105/313/79
f 112/320/80 111/319/80 110/318/80 109/317/80
f 106/324/81 112/323/81 109/322/81 105/321/81
f 110/328/82 111/327/82 107/326/82 108/325/82
f 109/332/83 110/331/83 108/330/83 105/329/83
f 107/336/84 111/335/84 112/334/84 106/333/84
o group1340305434
g mesh1340305434
usemtl mat21
f 116/340/85 115/339/85 114/338/85 113/337/85
f 120/344/86 119/343/86 118/342/86 117/341/86
f 114/348/87 120/347/87 117/346/87 113/345/87
f 118/352/88 119/351/88 115/350/88 116/349/88
f 117/356/89 118/355/89 116/354/89 113/353/89
f 115/360/90 119/359/90 120/358/90 114/357/90
o group784398221
g mesh784398221
usemtl mat21
f 124/364/91 123/363/91 122/362/91 121/361/91
f 128/368/92 127/367/92 126/366/92 125/365/92
f 122/372/93 128/371/93 125/370/93 121/369/93
f 126/376/94 127/375/94 123/374/94 124/373/94
f 125/380/95 126/379/95 124/378/95 121/377/95
f 123/384/96 127/383/96 128/382/96 122/381/96
o group1991000526
g mesh1991000526
usemtl mat21
f 132/388/97 131/387/97 130/386/97 129/385/97
f 136/392/98 135/391/98 134/390/98 133/389/98
f 130/396/99 136/395/99 133/394/99 129/393/99
f 134/400/100 135/399/100 131/398/100 132/397/100
f 133/404/101 134/403/101 132/402/101 129/401/101
f 131/408/102 135/407/102 136/406/102 130/405/102
o group514036701
g mesh514036701
usemtl mat23
f 140/412/103 139/411/103 138/410/103 137/409/103
f 144/416/104 143/415/104 142/414/104 141/413/104
f 138/420/105 144/419/105 141/418/105 137/417/105
f 142/424/106 143/423/106 139/422/106 140/421/106
f 141/428/107 142/427/107 140/426/107 137/425/107
f 139/432/108 143/431/108 144/430/108 138/429/108
